<svg xmlns="http://www.w3.org/2000/svg" data-name="Layer 1" viewBox="0 0 100 125" x="0px" y="0px">
	<path fill="white" d="M21.61,52.94a1,1,0,0,0,.89-.37,1,1,0,0,0,.17-.94c-.2-.61-.4-1.33-.58-2.08.2.35.41.69.61,1A13.94,13.94,0,0,1,25,56.41c.72,5.87-1.8,12.12-2.3,13-2.11,3.86-2.4,7.41-.84,10.24,1.9,3.47,2.29,12.39,2.29,14.59a1,1,0,0,0,.45.83,4.07,4.07,0,0,1,1.56,2.72,1,1,0,0,0,1,.91H35a1,1,0,0,0,.71-1.7l-4.87-5c-1.37-5.73-2.77-15.38-.89-17.87,6.9-6.44,9-12.27,9.66-15.63,2.36,3.17,7.11,8.38,13,8.83,5.75.44,6,1.31,6.46,2.76a10.48,10.48,0,0,0,.52,1.43c1.86,6.06,1.22,12.85.8,17.35-.34,3.69-.5,5.37.5,6.12A6.09,6.09,0,0,1,62.56,98a1,1,0,0,0,1,.75h8.08a1,1,0,0,0,.61-1.79l-5.48-4.22c.18-2.7,1-14.94,1.64-19.16.35-2.34,1.12-3.08,3-4.89a54.33,54.33,0,0,0,6.75-7.81c6.15-8.5,2.3-35.09,1.33-41.08,2.33-.07,6.85-.45,8.54-2.3l0,0a2.84,2.84,0,0,0,.19-.23,2.59,2.59,0,0,0,.27-2.5c-1.39-3.71-8.74-6.28-11.18-7A10.51,10.51,0,0,1,78.4,2.75a1,1,0,0,0-1-1.47,7.31,7.31,0,0,0-5.46,4A3.75,3.75,0,0,0,69.37,6c-2.69,2-3,7.36-3,8L65.7,36.5c-2.93-.3-11.55-1.25-21.42-2.9-11.85-2-18.67,2-20.69,3.44a5.26,5.26,0,0,0-5.18-.31c-2.64,1.28-4.35,4.55-4.35,8.35C14.06,50.65,19,52.66,21.61,52.94ZM19.28,38.52a3.35,3.35,0,0,1,3.72.54,1,1,0,0,0,1.28,0c.26-.23,6.55-5.64,19.67-3.46,12.19,2,22.51,3,22.62,3a1,1,0,0,0,.76-.25,1,1,0,0,0,.34-.72L68.39,14c.05-1.38.54-5.23,2.17-6.44a1.8,1.8,0,0,1,.38-.22,15,15,0,0,0-.68,2.2,1,1,0,0,0,2,.41,14.28,14.28,0,0,1,1.13-3.09l.07-.13a7.38,7.38,0,0,1,2.36-2.81,13.06,13.06,0,0,0-.46,4.61,1,1,0,0,0,.72.85c3.59,1,9.63,3.56,10.55,6a1.12,1.12,0,0,1,.06.21l-2.87-.95a1,1,0,1,0-.63,1.9l1.51.5a24.74,24.74,0,0,1-6.15.73h-.26a1,1,0,0,0-1,1.17c.06.32,5.52,32-.79,40.72a52.53,52.53,0,0,1-6.52,7.56c-1.93,1.88-3.09,3-3.54,6-.72,4.81-1.66,19.25-1.7,19.86a1,1,0,0,0,.39.86l3.58,2.75H64.26a7.38,7.38,0,0,0-2.08-3.18,21.61,21.61,0,0,1,.19-4.42c.44-4.67,1.1-11.73-.9-18.19a.83.83,0,0,0-.05-.13A8.55,8.55,0,0,1,61,69.59c-.75-2.47-1.81-3.68-8.22-4.17-7.33-.56-13-10.14-13.08-10.24a1,1,0,0,0-1.86.59c0,.08.5,7.89-9.33,17l-.1.1c-3.23,4,.14,18.3.53,19.92a1,1,0,0,0,.26.46l3.39,3.45H28a5.91,5.91,0,0,0-1.83-3c-.05-2.22-.4-11.17-2.53-15-1.21-2.21-.92-5.09.85-8.33A28.45,28.45,0,0,0,27,56.17a15.78,15.78,0,0,0-2.61-6.62c-1.21-2-2.09-3.44-1.52-5.67a1,1,0,0,0-1.18-1.22,2.34,2.34,0,0,0-1.56,1.17c-.94,1.65-.38,4.77.13,6.77a5.64,5.64,0,0,1-4.22-5.52C16.06,42,17.33,39.47,19.28,38.52Z" />
	<path fill="white" d="M61.38,41.67c.08,0,7.56,1.82,9.3,8.44a1,1,0,1,0,1.93-.51c-2.06-7.81-10.44-9.8-10.79-9.88a1,1,0,0,0-.45,1.95Z" />
	<path fill="white" d="M37.25,50.86a1,1,0,0,0,.3,0,1,1,0,0,0,.66-1.25s-1.3-4.31,1.79-7a1,1,0,0,0-1.31-1.51c-4.06,3.52-2.46,8.87-2.39,9.09A1,1,0,0,0,37.25,50.86Z" />
	<circle fill="white" cx="76.83" cy="12.33" r="1.5" />
</svg>
